<?xml version="1.0" standalone="no"?>
<!DOCTYPE svg PUBLIC "-//W3C//DTD SVG 20010904//EN"
 "http://www.w3.org/TR/2001/REC-SVG-20010904/DTD/svg10.dtd">
<svg version="1.0" xmlns="http://www.w3.org/2000/svg"
 width="321.000000pt" height="321.000000pt" viewBox="0 0 321.000000 321.000000"
 preserveAspectRatio="xMidYMid meet">
<metadata>
Created by potrace 1.14, written by Peter Selinger 2001-2017
</metadata>
<g transform="translate(0.000000,321.000000) scale(0.100000,-0.100000)"
fill="#000000" stroke="none">
<path d="M1301 2611 l-33 -6 0 -583 c0 -321 3 -587 7 -590 3 -4 149 -7 323 -7
346 0 386 5 465 55 33 20 52 43 72 85 25 50 28 68 28 153 1 173 -52 275 -155
302 -24 7 -52 16 -63 20 -18 8 -18 9 4 9 39 1 109 40 132 72 33 46 48 122 45
218 -4 105 -25 160 -78 205 -72 62 -126 71 -438 72 -151 0 -290 -2 -309 -5z
m509 -197 c47 -20 64 -57 64 -139 0 -82 -17 -119 -62 -136 -37 -15 -271 -18
-280 -5 -3 6 -7 75 -7 154 l0 143 128 -2 c71 -2 141 -8 157 -15z m27 -477 c48
-26 66 -67 65 -157 0 -146 -27 -165 -237 -165 l-139 0 -1 165 c-1 91 0 168 2
172 2 4 65 6 141 4 106 -2 144 -6 169 -19z"/>
<path d="M14 2601 c-3 -3 -4 -181 -3 -395 1 -426 8 -508 54 -603 44 -89 138
-155 255 -178 60 -12 273 -14 330 -4 83 15 174 63 215 114 40 48 70 124 83
209 10 63 13 855 3 857 -34 6 -244 3 -248 -4 -3 -4 -6 -191 -8 -415 -2 -409
-5 -446 -40 -499 -51 -78 -257 -86 -325 -12 -50 53 -54 90 -56 524 -1 220 -2
402 -3 405 -1 7 -251 7 -257 1z"/>
<path d="M2434 2601 c-10 -10 -4 -942 7 -990 13 -64 57 -124 111 -153 41 -22
52 -23 283 -23 283 1 353 5 364 19 4 6 7 25 5 41 -1 17 -3 56 -5 88 -1 32 -7
58 -13 58 -6 1 -103 2 -216 3 -113 1 -215 6 -228 10 -47 16 -48 31 -48 504 1
289 -2 442 -9 443 -29 4 -247 4 -251 0z"/>
<path d="M1398 1252 c-16 -3 -18 -17 -18 -128 0 -114 2 -125 18 -122 14 3 17
12 15 51 l-3 47 39 0 c38 0 40 -1 56 -50 12 -36 22 -50 35 -50 18 0 18 2 3 48
-9 26 -19 51 -24 56 -5 5 -1 15 8 21 23 17 26 89 4 109 -16 15 -95 25 -133 18z
m110 -65 c5 -39 -12 -55 -56 -53 -36 1 -37 2 -40 44 l-3 43 48 -3 c44 -3 48
-5 51 -31z"/>
<path d="M1707 1253 c-33 -5 -50 -33 -43 -74 6 -42 20 -55 71 -68 55 -14 74
-42 46 -70 -14 -14 -29 -18 -65 -15 -36 3 -46 1 -46 -11 0 -16 16 -19 88 -17
55 1 74 22 68 75 -2 21 -7 41 -10 44 -3 3 -29 13 -58 23 -48 15 -53 20 -53 46
0 28 2 29 54 34 54 5 85 29 39 31 -12 0 -32 2 -43 3 -11 1 -32 1 -48 -1z"/>
<path d="M2135 1250 c-18 -6 -20 -17 -20 -128 l-1 -122 41 -2 c104 -3 129 10
143 76 10 53 -3 135 -25 158 -19 19 -104 30 -138 18z m116 -46 c18 -22 16
-141 -2 -159 -8 -7 -32 -15 -54 -17 l-40 -3 -3 98 -3 97 44 0 c29 0 49 -6 58
-16z"/>
<path d="M2758 1253 l-38 -4 0 -125 0 -124 38 -1 c102 -4 127 6 142 59 24 88
2 177 -47 188 -46 10 -56 11 -95 7z m94 -50 c14 -12 18 -31 18 -77 0 -34 -4
-67 -9 -75 -9 -14 -100 -33 -102 -22 -1 3 -2 48 -3 99 l-2 92 40 0 c23 0 47
-7 58 -17z"/>
<path d="M9 1233 c-1 -19 -1 -96 0 -154 1 -20 9 -46 19 -57 34 -41 139 -31
156 13 3 9 6 61 6 116 0 81 -3 99 -15 99 -17 0 -17 0 -17 -95 1 -109 -15 -134
-78 -125 -29 4 -35 22 -37 113 -1 51 -2 95 -2 100 -2 15 -31 6 -32 -10z"/>
<path d="M327 1243 c-4 -3 -7 -60 -7 -125 0 -107 2 -118 18 -118 17 0 18 9 17
100 -1 55 1 100 4 100 4 0 27 -45 53 -101 45 -95 49 -100 75 -97 l28 3 0 120
c0 106 -2 120 -17 123 -16 3 -18 -7 -19 -105 l0 -108 -52 108 c-41 87 -55 107
-72 107 -12 0 -25 -3 -28 -7z"/>
<path d="M650 1125 c0 -104 2 -125 15 -125 18 0 17 -7 17 125 0 132 1 125 -17
125 -13 0 -15 -21 -15 -125z"/>
<path d="M790 1244 c0 -8 59 -195 71 -222 7 -18 16 -23 36 -20 21 2 28 11 38
43 7 22 24 77 38 123 23 75 24 82 8 82 -14 0 -25 -24 -51 -110 -18 -61 -36
-107 -40 -103 -4 4 -20 54 -36 110 -23 80 -33 103 -46 103 -10 0 -18 -3 -18
-6z"/>
<path d="M1111 1233 c-5 -10 -9 -58 -9 -108 0 -122 3 -125 88 -125 57 0 70 3
70 16 0 11 -8 15 -27 14 -16 -1 -43 -2 -60 -1 -32 1 -33 2 -33 46 l0 45 55 0
c30 0 55 4 55 9 0 13 -20 18 -67 16 l-43 -1 0 38 0 38 60 0 c47 0 60 3 60 15
0 24 -136 21 -149 -2z"/>
<path d="M1949 1213 c-1 -55 -1 -164 0 -191 1 -16 6 -22 18 -20 14 3 16 19 16
123 0 103 -3 120 -17 123 -12 3 -16 -5 -17 -35z"/>
<path d="M2475 1238 c-25 -70 -75 -224 -75 -231 0 -23 35 2 45 33 11 33 15 35
58 38 46 3 47 3 63 -37 9 -23 22 -41 30 -41 19 0 18 10 -24 135 -34 102 -39
110 -65 113 -16 2 -29 -2 -32 -10z m61 -102 c6 -24 4 -26 -30 -26 -20 0 -36 1
-36 3 0 2 7 28 16 58 l17 54 13 -31 c7 -17 16 -43 20 -58z"/>
<path d="M3042 1238 c-16 -16 -17 -209 0 -226 17 -17 151 -16 146 1 -3 7 -26
13 -58 14 -29 1 -55 4 -57 7 -9 9 -15 87 -7 85 5 -1 30 -1 57 0 32 1 47 5 47
14 0 10 -15 13 -56 12 l-55 -1 5 35 c3 20 5 37 6 39 0 1 27 2 61 2 44 0 60 3
57 13 -6 17 -129 22 -146 5z"/>
<path d="M12 862 c-9 -3 -12 -37 -12 -128 l0 -124 33 -1 c69 -3 119 1 136 11
27 14 32 76 10 105 -12 14 -15 25 -8 32 19 19 19 60 1 82 -14 18 -30 23 -82
25 -36 1 -71 1 -78 -2z m113 -72 c0 -21 -5 -26 -32 -28 -31 -3 -33 -1 -33 28
0 29 2 31 33 28 27 -2 32 -7 32 -28z m4 -84 c19 -23 -4 -56 -39 -56 -30 0 -40
17 -32 53 5 21 54 23 71 3z"/>
<path d="M260 861 c-13 -5 -16 -27 -15 -126 l0 -120 29 0 c28 0 29 2 29 48 -1
35 3 47 14 47 31 0 51 -21 58 -60 6 -37 9 -40 40 -40 l33 0 -14 46 c-8 26 -19
53 -25 60 -6 8 -7 14 -2 14 29 0 35 91 9 118 -14 14 -130 24 -156 13z m114
-56 c3 -8 3 -22 0 -30 -7 -17 -47 -30 -63 -20 -12 7 -15 48 -4 58 12 13 61 7
67 -8z"/>
<path d="M768 856 c-30 -15 -43 -53 -29 -89 7 -19 27 -34 66 -51 30 -14 55
-29 55 -35 0 -17 -33 -28 -77 -25 -30 2 -43 -2 -47 -13 -8 -20 -4 -24 34 -32
100 -20 159 14 145 85 -6 32 -12 39 -66 62 -79 34 -77 56 4 60 49 3 57 6 57
22 0 12 -7 21 -17 21 -77 6 -105 5 -125 -5z"/>
<path d="M1356 862 c-57 -5 -65 -22 -66 -128 0 -116 7 -124 107 -124 62 0 71
2 68 18 -2 9 -4 20 -4 23 -1 4 -18 6 -38 6 -72 1 -73 1 -73 33 0 29 1 30 50
30 43 0 50 3 50 20 0 22 -5 23 -63 21 -36 -1 -38 0 -35 26 3 30 4 30 71 32 34
1 43 5 44 20 2 21 -37 29 -111 23z"/>
<path d="M1648 856 c-9 -9 -13 -46 -12 -127 l1 -114 30 -3 c30 -3 30 -3 28 42
-2 38 1 46 17 52 26 8 44 -11 55 -56 8 -29 14 -35 40 -38 l31 -3 -10 43 c-6
24 -16 49 -24 57 -10 11 -9 17 7 34 24 26 24 68 2 96 -14 16 -33 22 -85 26
-47 3 -71 0 -80 -9z m119 -52 c9 -25 -10 -47 -43 -51 -27 -3 -29 -1 -30 32 -1
33 0 35 33 35 22 0 36 -6 40 -16z"/>
<path d="M1965 861 c-28 -6 -32 -13 -67 -121 -20 -63 -37 -118 -37 -122 -1 -5
12 -8 28 -8 24 0 31 6 40 33 10 30 16 34 51 35 37 2 40 -1 48 -31 7 -26 14
-33 39 -35 l32 -3 -25 78 c-13 43 -29 97 -35 121 -13 48 -31 61 -74 53z m31
-102 l12 -39 -30 0 c-23 0 -28 4 -24 18 3 9 8 30 12 45 8 34 15 28 30 -24z"/>
<path d="M2433 861 c-5 -3 -9 -61 -9 -128 l0 -123 28 0 c15 0 28 5 29 10 0 6
1 55 1 110 0 55 -1 106 -1 114 -1 15 -34 27 -48 17z"/>
<path d="M2539 863 c-14 -3 -12 -18 17 -118 18 -63 36 -119 39 -125 9 -14 71
-12 82 3 5 6 22 55 37 107 15 52 29 103 32 113 4 13 -1 17 -24 17 -29 0 -30
-3 -51 -82 -35 -134 -36 -135 -60 -25 -23 98 -36 118 -72 110z"/>
<path d="M2803 863 c-10 -3 -13 -39 -13 -129 l0 -124 30 0 c29 0 30 1 30 50 0
41 3 50 18 50 28 0 39 -13 51 -57 11 -38 15 -43 41 -43 17 0 30 4 30 8 0 20
-33 102 -41 102 -5 0 0 9 11 20 26 26 26 81 1 104 -19 17 -128 30 -158 19z
m115 -72 c4 -26 -12 -41 -45 -41 -20 0 -23 5 -23 36 0 34 1 35 33 32 25 -2 33
-8 35 -27z"/>
<path d="M3087 862 c-43 -5 -55 -35 -52 -134 2 -113 8 -120 99 -116 63 3 71 5
71 23 0 17 -7 20 -45 20 -56 1 -70 9 -70 41 0 22 4 24 49 24 40 0 50 3 54 20
5 21 -1 23 -61 21 -21 0 -35 5 -39 14 -7 21 16 46 41 44 57 -4 76 1 76 21 0
12 -7 20 -17 21 -10 0 -31 1 -48 2 -16 1 -42 1 -58 -1z"/>
<path d="M545 850 c-8 -12 -75 -221 -75 -232 0 -5 13 -8 29 -8 23 0 30 6 37
33 9 29 14 32 50 35 39 3 41 1 50 -30 8 -27 15 -34 42 -36 30 -3 32 -2 23 20
-6 13 -24 69 -41 126 l-31 102 -39 0 c-21 0 -42 -5 -45 -10z m64 -112 c1 -13
-7 -18 -25 -18 -23 0 -25 3 -20 23 4 12 9 35 13 52 l6 29 13 -34 c7 -19 13
-43 13 -52z"/>
<path d="M969 833 c0 -16 -1 -72 -2 -125 l-2 -98 31 0 30 0 0 125 0 125 -28 0
c-24 0 -28 -4 -29 -27z"/>
<path d="M1089 843 c0 -10 -1 -60 -1 -112 0 -114 6 -121 97 -121 69 0 75 3 68
31 -4 15 -13 19 -48 17 -23 0 -46 2 -51 5 -6 3 -9 49 -9 101 l1 96 -28 0 c-20
0 -28 -5 -29 -17z"/>
<path d="M1519 848 c0 -7 -1 -62 -2 -123 l0 -110 29 -3 29 -3 0 126 0 125 -27
0 c-16 0 -28 -6 -29 -12z"/>
<path d="M2219 843 c-1 -10 -1 -60 -1 -112 -1 -114 5 -121 99 -121 60 0 63 1
63 25 0 22 -4 24 -46 23 -25 0 -49 4 -53 11 -4 6 -7 51 -6 101 l1 90 -28 0
c-20 0 -28 -5 -29 -17z"/>
</g>
</svg>
